<?xml version="1.0" encoding="utf-8"?>
<!-- Generator: Adobe Illustrator 15.1.0, SVG Export Plug-In . SVG Version: 6.00 Build 0)  -->
<!DOCTYPE svg PUBLIC "-//W3C//DTD SVG 1.1//EN" "http://www.w3.org/Graphics/SVG/1.1/DTD/svg11.dtd">
<svg version="1.1" id="圖層_1" xmlns="http://www.w3.org/2000/svg" xmlns:xlink="http://www.w3.org/1999/xlink" x="0px" y="0px"
	 width="500px" height="500px" viewBox="0 0 500 500" enable-background="new 0 0 500 500" xml:space="preserve">
<g>
	<g>
		<path fill="#626365" d="M104.295,229.962c-3.154,0-5.698,2.572-5.698,5.756v34.752c-0.188,11.564-4.224,15.92-8.627,18.773
			c-4.421,2.779-10.007,3.164-11.649,3.141c-0.422,0-0.535-0.014-0.535,0l-0.282-0.014c-10.823-0.174-14.653-4.207-17.395-8.66
			c-2.572-4.539-2.826-10.025-2.769-10.898l0,0v-0.254v-36.84c0-3.184-2.61-5.756-5.754-5.756c-3.173,0-5.717,2.572-5.717,5.756
			v36.666c-0.028,0.104-0.028,0.254-0.028,0.428c0.028,1.928,0.169,9.063,4.252,16.508c3.971,7.463,13.029,14.643,27.251,14.525
			c0.207,0,0.554,0.016,0.977,0.016c2.779-0.043,10.185-0.33,17.648-4.82c7.491-4.389,14.222-13.881,14.072-28.57v-34.752
			C110.04,232.534,107.468,229.962,104.295,229.962z"/>
		<path fill="#626365" d="M375.1,229.962c-3.164,0-5.735,2.572-5.735,5.756v34.752c-0.169,11.564-4.215,15.92-8.59,18.773
			c-4.44,2.779-10.054,3.164-11.688,3.141c-0.422,0-0.497-0.014-0.497,0l-0.329-0.014c-10.805-0.174-14.662-4.207-17.366-8.66
			c-2.516-4.436-2.816-9.828-2.816-10.834l0.028-0.318v-36.84c0-3.184-2.591-5.756-5.754-5.756c-3.145,0-5.708,2.572-5.708,5.756
			v36.666c-0.028,0.104-0.028,0.254-0.028,0.455c0.028,1.92,0.179,9.049,4.281,16.48c3.971,7.463,13.001,14.643,27.261,14.525
			c0.169,0,0.497,0.016,0.929,0.016c2.788-0.043,10.214-0.33,17.658-4.82c7.528-4.389,14.25-13.881,14.108-28.57v-34.752
			C380.854,232.534,378.254,229.962,375.1,229.962z"/>
		<path fill="#626365" d="M151.917,229.72h-12.241c-3.145,0-5.736,2.543-5.736,5.717c0,3.152,2.591,5.734,5.736,5.734h12.241
			c13.255,0.146,18.718,5.074,22.182,10.383c3.398,5.406,4.074,12.279,4.027,15.535c0,1.23-0.066,1.785-0.056,1.785
			c-1.155,12.24-5.858,17.225-10.58,20.229c-4.807,2.967-10.307,3.305-11.894,3.281c-0.385,0-0.498-0.014-0.498,0l-0.226-0.014
			c-12.006-0.174-16.409-4.535-19.31-9.115c-2.788-4.643-3.042-10.205-2.985-10.908l0,0v-0.188v-69.336
			c0-3.176-2.563-5.754-5.726-5.754s-5.754,2.578-5.754,5.754v69.336l0,0c0,0.047,0,0.117,0,0.188
			c0.038,1.803,0.178,9.115,4.562,16.723c4.337,7.646,13.912,14.932,29.157,14.775c0.16,0,0.432,0.016,0.779,0.016
			c2.75-0.039,10.185-0.357,17.808-4.947c7.697-4.498,14.907-13.865,16.062-29.008c0.019-0.057,0.113-1.145,0.113-2.816
			c-0.047-4.396-0.563-13.197-5.764-21.58C178.736,237.04,168.194,229.53,151.917,229.72z"/>
		<path fill="#626365" d="M212.878,229.681c-3.164,0-5.745,2.572-5.745,5.736v62.697c0,3.164,2.582,5.746,5.745,5.746
			c3.145,0,5.707-2.582,5.707-5.746v-62.697C218.585,232.253,216.022,229.681,212.878,229.681z"/>
		<path fill="#626365" d="M300.311,264.733c-3.163,0-5.707,2.572-5.707,5.736c-0.179,11.273-4.027,15.699-8.261,18.6
			c-4.469,2.924-10.261,3.365-11.979,3.338c-0.45,0-0.554-0.037-0.554-0.037h-0.301c-10.805-0.174-14.635-4.188-17.356-8.627
			c-2.563-4.506-2.816-9.998-2.807-10.885l0,0v-0.297v-31.381h44.908c3.173,0,5.745-2.592,5.745-5.744
			c0-3.174-2.572-5.717-5.745-5.717h-44.908v-26.793c0-3.154-2.544-5.725-5.727-5.725c-3.173,0-5.717,2.57-5.717,5.725l0,0v69.635
			c0,0.076,0,0.18,0,0.297c0.028,1.92,0.141,9.063,4.253,16.479c3.971,7.473,13.048,14.664,27.307,14.508c0.197,0,0.488,0,0.901,0
			c2.892-0.055,10.58-0.338,18.192-5.135c7.304-4.537,13.659-13.93,13.49-28.24C306.047,267.306,303.475,264.733,300.311,264.733z"
			/>
		<path fill="#626365" d="M454.197,281.888c0.037-8.678-4.835-14.799-9.726-17.211c-4.882-2.59-9.321-2.629-10.589-2.652
			c-0.132,0-0.244,0-0.385,0h-19.188c-0.348,0-0.629,0-0.845,0c-7.407-0.061-10.167-1.943-11.396-3.299
			c-1.286-1.398-1.624-3.275-1.624-4.646c0-0.414,0.037-0.713,0.084-0.902c0-0.047,0-0.084,0-0.098
			c0.01-0.057,0.01-0.057,0.01-0.057h-0.01l0.104-1.094c0.197-5.877,2.366-7.65,5.426-9.326c1.493-0.703,3.183-1.111,4.478-1.301
			c0.639-0.111,1.117-0.168,1.455-0.178c0.348-0.014,0.395-0.014,0.395-0.014h36.066c3.173,0,5.745-2.559,5.745-5.73
			c0-3.168-2.572-5.736-5.745-5.736h-36.066c-0.46,0.037-5.463-0.047-11.161,2.553c-5.614,2.367-12.044,9.191-12.044,19.273
			c-0.104,0.59-0.188,1.482-0.188,2.609c0,2.92,0.647,7.918,4.533,12.283c3.915,4.398,10.552,7.166,19.939,7.139
			c0.318,0,0.563,0,0.76,0h19.479l0.179-0.027l0,0c0.028,0,0.075,0,0.075,0c0.704,0.027,3.229,0.252,5.06,1.285
			c1.98,1.311,3.521,2.301,3.736,7.516l0.065,1.045c0,0,0,0.076,0.075,0.471c0.047,0.395,0.094,1.014,0.094,1.68
			c0.028,1.727-0.385,3.877-1.117,4.943c-0.808,0.99-1.295,1.807-5.031,1.957h-41.914c-3.173,0-5.745,2.59-5.745,5.744
			c0,3.164,2.572,5.73,5.745,5.73h41.914c6.646,0.146,12.101-3.018,14.644-7.203c2.592-4.094,2.93-8.258,2.957-11.172
			C454.44,283.864,454.3,282.612,454.197,281.888z"/>
		<path fill="#626365" d="M212.84,201.749c-3.22,0.1-5.802,2.756-5.717,5.967c0.057,3.238,2.732,5.805,5.961,5.734
			c3.248-0.064,5.811-2.746,5.717-5.947C218.754,204.241,216.079,201.688,212.84,201.749z"/>
		<path fill="#626365" d="M375.222,213.45c3.229-0.064,5.782-2.746,5.727-5.947c-0.038-3.262-2.751-5.814-5.952-5.754
			c-3.248,0.1-5.801,2.756-5.764,5.967C369.336,210.954,372.011,213.521,375.222,213.45z"/>
		<path fill="#626365" d="M51.688,213.45c3.22-0.064,5.792-2.746,5.726-5.947c-0.075-3.262-2.731-5.814-5.97-5.754
			c-3.238,0.1-5.792,2.756-5.726,5.967C45.793,210.954,48.469,213.521,51.688,213.45z"/>
	</g>
</g>
</svg>
