<?xml version="1.0" encoding="utf-8"?>
<!-- Generator: Adobe Illustrator 15.1.0, SVG Export Plug-In . SVG Version: 6.00 Build 0)  -->
<!DOCTYPE svg PUBLIC "-//W3C//DTD SVG 1.1//EN" "http://www.w3.org/Graphics/SVG/1.1/DTD/svg11.dtd">
<svg version="1.1" id="圖層_1" xmlns="http://www.w3.org/2000/svg" xmlns:xlink="http://www.w3.org/1999/xlink" x="0px" y="0px"
	 width="500px" height="500px" viewBox="0 0 500 500" enable-background="new 0 0 500 500" xml:space="preserve">
<path fill="#8FC31F" d="M279.401,117.462V64.485c0,0,0-0.056,0-0.238l0,0c0.06-1.265-0.313-9.127-4.048-15.561l0,0
	c-3.915-6.355-9.466-12.092-25.109-12.349l0,0h-0.565c0,0-0.045-0.037-0.581-0.037l0,0c-2.366-0.06-10.448,0.509-16.892,4.505l0,0
	c-6.326,4.086-12.129,10.292-12.354,26.898l0,0v49.758c0,4.529-3.676,8.209-8.229,8.209l0,0c-4.571,0-8.247-3.68-8.247-8.209l0,0
	V67.704c-0.268-21.119,9.451-34.715,20.271-41.021l0,0c10.745-6.408,21.432-6.832,25.451-6.865l0,0c0.536,0,0.981,0,1.31,0.026l0,0
	c20.479-0.227,33.561,10.031,39.307,20.744l0,0c5.863,10.63,6.102,20.873,6.102,23.66l0,0c0,0.332,0,0.513,0,0.41l0,0v52.805l0,0
	c0,4.529-3.616,8.209-8.201,8.209l0,0C283.077,125.671,279.401,121.991,279.401,117.462L279.401,117.462z"/>
</svg>
