<?xml version="1.0" encoding="utf-8"?>
<!-- Generator: Adobe Illustrator 15.1.0, SVG Export Plug-In . SVG Version: 6.00 Build 0)  -->
<!DOCTYPE svg PUBLIC "-//W3C//DTD SVG 1.1//EN" "http://www.w3.org/Graphics/SVG/1.1/DTD/svg11.dtd">
<svg version="1.1" id="圖層_1" xmlns="http://www.w3.org/2000/svg" xmlns:xlink="http://www.w3.org/1999/xlink" x="0px" y="0px"
	 width="500px" height="500px" viewBox="0 0 500 500" enable-background="new 0 0 500 500" xml:space="preserve">
<path fill="#1B3670" d="M130.719,174.755c-20.243-0.334-32.341-14.099-32.893-14.412l0,0l-37.581-37.314
	c-3.513-3.536-3.513-9.291-0.045-12.837l0,0c3.557-3.564,9.287-3.579,12.843-0.056l0,0l37.804,37.562c0,0,0,0,0.225,0.18l0,0
	c0.193,0.233,0.536,0.597,1.057,0.994l0,0c0.937,0.852,2.499,2.041,4.36,3.217l0,0c3.809,2.385,8.899,4.54,14.229,4.5l0,0
	c5.402-0.071,11.652-1.79,19.555-9.553l0,0l0.461-0.345c0,0,0,0,0.165-0.218l0,0c0.238-0.225,0.61-0.596,1.071-1.105l0,0
	c0.923-0.983,2.217-2.523,3.498-4.417l0,0c2.545-3.832,4.823-8.979,4.823-14.559l0,0c-0.074-5.753-2.054-12.67-10.851-21.544l0,0
	l-35.481-35.173c-3.573-3.535-3.573-9.273-0.031-12.841l0,0c3.527-3.576,9.302-3.617,12.829-0.056l0,0l35.497,35.173
	c11.505,11.333,16.268,23.612,16.165,34.44l0,0c-0.313,19.329-12.845,31.202-15.345,33.586l0,0l0,0
	c-10.374,10.426-21.907,14.78-32.073,14.78l0,0C130.881,174.755,130.821,174.755,130.719,174.755L130.719,174.755z"/>
<path fill="#1B3670" d="M438.682,123.029l-35.184,35.45c-11.342,11.547-23.664,16.297-34.455,16.198l0,0
	c-19.317-0.302-31.181-12.863-33.547-15.313l0,0v0.009c-10.538-10.498-14.884-22.166-14.778-32.372l0,0
	c0.313-20.241,14.108-32.353,14.407-32.892l0,0l37.326-37.603h0.016c3.498-3.572,9.271-3.594,12.813-0.067l0,0
	c3.572,3.565,3.572,9.302,0.045,12.856l0,0l-37.551,37.836c0,0,0,0-0.223,0.168l0,0c-0.179,0.264-0.507,0.625-0.968,1.105l0,0
	c-0.862,1.001-2.024,2.511-3.199,4.387l0,0c-2.396,3.769-4.51,8.84-4.51,14.209l0,0c0.045,5.425,1.786,11.652,9.524,19.549l0,0
	l0.403,0.432c0,0,0,0,0.148,0.212l0,0c0.281,0.223,0.64,0.576,1.13,1.038l0,0c0.968,0.926,2.517,2.222,4.437,3.487l0,0
	c3.795,2.564,8.944,4.831,14.525,4.796l0,0c5.79-0.052,12.695-2.01,21.552-10.861l0,0l35.199-35.403
	c3.541-3.576,9.271-3.602,12.798-0.06l0,0c1.832,1.782,2.755,4.13,2.755,6.468l0,0C441.347,118.951,440.453,121.253,438.682,123.029
	L438.682,123.029z"/>
</svg>
