<?xml version="1.0" encoding="utf-8"?>
<!-- Generator: Adobe Illustrator 15.1.0, SVG Export Plug-In . SVG Version: 6.00 Build 0)  -->
<!DOCTYPE svg PUBLIC "-//W3C//DTD SVG 1.1//EN" "http://www.w3.org/Graphics/SVG/1.1/DTD/svg11.dtd">
<svg version="1.1" id="圖層_1" xmlns="http://www.w3.org/2000/svg" xmlns:xlink="http://www.w3.org/1999/xlink" x="0px" y="0px"
	 width="500px" height="500px" viewBox="0 0 500 500" enable-background="new 0 0 500 500" xml:space="preserve">
<path fill="#8FC31F" d="M367.153,283.626c0-4.569,3.69-8.241,8.23-8.241l0,0h50.081c16.789-0.234,23.055-6.047,27.191-12.313l0,0
	c4.004-6.362,4.556-14.343,4.495-16.706l0,0c0-0.541,0-0.652,0-0.652l0,0l-0.029-0.48c-0.268-15.458-6.027-20.952-12.458-24.839l0,0
	c-6.519-3.702-14.466-4.067-15.73-4.023l0,0v-0.011l-0.432,0.011h-53.118l0,0c-4.54,0-8.23-3.675-8.23-8.22l0,0
	c0-4.564,3.69-8.248,8.23-8.248l0,0h52.834c0.194-0.011,0.419-0.011,0.716-0.011l0,0c2.798,0.059,13.112,0.245,23.754,6.083l0,0
	c10.716,5.656,21.104,18.655,20.955,39.047l0,0c0,0.266,0,0.751,0,1.342l0,0c-0.045,3.993-0.462,14.667-6.95,25.343l0,0
	c-6.431,10.756-20.019,20.397-41.228,20.151l0,0h-50.081C370.844,291.86,367.153,288.182,367.153,283.626L367.153,283.626z"/>
<path fill="#8FC31F" d="M47.283,285.726c-10.733-5.607-21.046-18.523-20.927-38.856l0,0c0-0.306,0-0.808,0-1.474l0,0
	c0.029-4.022,0.446-14.683,6.95-25.355l0,0c6.34-10.793,19.959-20.406,41.137-20.168l0,0h50.187c4.495,0,8.2,3.7,8.2,8.243l0,0
	c0,4.558-3.705,8.246-8.2,8.246l0,0H74.444c-16.728,0.242-23.023,6.046-27.102,12.286l0,0c-4.004,6.385-4.584,14.345-4.54,16.748
	l0,0c0,0.509,0,0.561,0,0.561l0,0v0.563c0.297,15.452,6.102,20.943,12.516,24.84l0,0c6.504,3.693,14.393,4.073,15.688,4.025l0,0
	c0.178,0,0.252,0,0.431,0l0,0h53.193c4.524,0,8.2,3.672,8.2,8.241l0,0c0,4.556-3.676,8.234-8.2,8.234l0,0H71.542
	c0,0-0.223,0-0.536,0l0,0C68.268,291.805,57.982,291.615,47.283,285.726L47.283,285.726z"/>
</svg>
