<?xml version="1.0" encoding="utf-8"?>
<!-- Generator: Adobe Illustrator 15.1.0, SVG Export Plug-In . SVG Version: 6.00 Build 0)  -->
<!DOCTYPE svg PUBLIC "-//W3C//DTD SVG 1.1//EN" "http://www.w3.org/Graphics/SVG/1.1/DTD/svg11.dtd">
<svg version="1.1" id="圖層_1" xmlns="http://www.w3.org/2000/svg" xmlns:xlink="http://www.w3.org/1999/xlink" x="0px" y="0px"
	 width="500px" height="500px" viewBox="0 0 500 500" enable-background="new 0 0 500 500" xml:space="preserve">
<g>
	<g>
		<g>
			<g>
				<path fill="#1B3670" d="M372.451,434.982l-35.48-35.23c-11.52-11.324-16.253-23.605-16.194-34.401l0,0
					c0.342-19.35,12.845-31.203,15.346-33.547l0,0v-0.03c10.462-10.532,22.146-14.868,32.37-14.794l0,0
					c20.212,0.332,32.327,14.108,32.863,14.431l0,0l37.58,37.326l0,0c3.557,3.527,3.557,9.287,0.059,12.857l0,0
					c-3.526,3.536-9.286,3.543-12.829,0.024l0,0l-37.849-37.551c0,0,0,0-0.178-0.19l0,0c-0.238-0.22-0.581-0.558-1.071-0.979l0,0
					c-1.013-0.889-2.517-2.05-4.406-3.236l0,0c-3.795-2.394-8.841-4.521-14.169-4.515l0,0c-5.463,0.071-11.668,1.787-19.602,9.504
					l0,0l-0.401,0.421c0,0,0,0-0.238,0.196l0,0c-0.223,0.228-0.64,0.584-1.071,1.091l0,0c-0.907,0.982-2.158,2.513-3.423,4.436l0,0
					c-2.546,3.824-4.837,8.996-4.837,14.556l0,0c0.119,5.741,1.994,12.657,10.819,21.545l0,0l35.496,35.189
					c3.527,3.521,3.543,9.309,0.045,12.852l0,0c-1.785,1.771-4.107,2.688-6.474,2.666l0,0
					C376.529,437.603,374.193,436.707,372.451,434.982L372.451,434.982z"/>
				<path fill="#1B3670" d="M130.719,174.755c-20.243-0.334-32.341-14.099-32.893-14.412l0,0l-37.581-37.314
					c-3.513-3.536-3.513-9.291-0.045-12.837l0,0c3.557-3.564,9.287-3.579,12.843-0.056l0,0l37.804,37.562c0,0,0,0,0.225,0.18l0,0
					c0.193,0.233,0.536,0.597,1.057,0.994l0,0c0.937,0.852,2.499,2.041,4.36,3.217l0,0c3.809,2.385,8.899,4.54,14.229,4.5l0,0
					c5.402-0.071,11.652-1.79,19.555-9.553l0,0l0.461-0.345c0,0,0,0,0.165-0.218l0,0c0.238-0.225,0.61-0.596,1.071-1.105l0,0
					c0.923-0.983,2.217-2.523,3.498-4.417l0,0c2.545-3.832,4.823-8.979,4.823-14.559l0,0c-0.074-5.753-2.054-12.67-10.851-21.544
					l0,0l-35.481-35.173c-3.573-3.535-3.573-9.273-0.031-12.841l0,0c3.527-3.576,9.302-3.617,12.829-0.056l0,0l35.497,35.173
					c11.505,11.333,16.268,23.612,16.165,34.44l0,0c-0.313,19.329-12.845,31.202-15.345,33.586l0,0l0,0
					c-10.374,10.426-21.907,14.78-32.073,14.78l0,0C130.881,174.755,130.821,174.755,130.719,174.755L130.719,174.755z"/>
			</g>
			<g>
				<path fill="#1B3670" d="M438.682,123.029l-35.184,35.45c-11.342,11.547-23.664,16.297-34.455,16.198l0,0
					c-19.317-0.302-31.181-12.863-33.547-15.313l0,0v0.009c-10.538-10.498-14.884-22.166-14.778-32.372l0,0
					c0.313-20.241,14.108-32.353,14.407-32.892l0,0l37.326-37.603h0.016c3.498-3.572,9.271-3.594,12.813-0.067l0,0
					c3.572,3.565,3.572,9.302,0.045,12.856l0,0l-37.551,37.836c0,0,0,0-0.223,0.168l0,0c-0.179,0.264-0.507,0.625-0.968,1.105l0,0
					c-0.862,1.001-2.024,2.511-3.199,4.387l0,0c-2.396,3.769-4.51,8.84-4.51,14.209l0,0c0.045,5.425,1.786,11.652,9.524,19.549l0,0
					l0.403,0.432c0,0,0,0,0.148,0.212l0,0c0.281,0.223,0.64,0.576,1.13,1.038l0,0c0.968,0.926,2.517,2.222,4.437,3.487l0,0
					c3.795,2.564,8.944,4.831,14.525,4.796l0,0c5.79-0.052,12.695-2.01,21.552-10.861l0,0l35.199-35.403
					c3.541-3.576,9.271-3.602,12.798-0.06l0,0c1.832,1.782,2.755,4.13,2.755,6.468l0,0
					C441.347,118.951,440.453,121.253,438.682,123.029L438.682,123.029z"/>
				<path fill="#1B3670" d="M178.522,364.767c-0.327,20.252-14.11,32.351-14.437,32.896l0,0l-37.328,37.596
					c-3.527,3.564-9.302,3.564-12.843,0.05l0,0c-3.556-3.57-3.572-9.293-0.074-12.866l0,0l37.61-37.81c0,0,0,0,0.178-0.195l0,0
					c0.178-0.251,0.581-0.579,0.997-1.084l0,0c0.849-0.991,2.039-2.518,3.2-4.369l0,0c2.411-3.781,4.54-8.862,4.509-14.217l0,0
					c-0.074-5.403-1.785-11.636-9.494-19.549l0,0l-0.432-0.424c0,0,0,0-0.224-0.22l0,0c-0.208-0.232-0.564-0.578-1.056-1.065l0,0
					c-1.013-0.923-2.515-2.205-4.42-3.459l0,0c-3.84-2.55-8.974-4.853-14.599-4.831l0,0c-5.716,0.111-12.653,2.05-21.521,10.861l0,0
					l-35.184,35.427c-3.513,3.57-9.289,3.57-12.829,0.06l0,0c-3.589-3.543-3.589-9.303-0.061-12.83l0,0l35.198-35.48
					c11.312-11.495,23.59-16.276,34.397-16.198l0,0c19.407,0.331,31.223,12.863,33.577,15.377l0,0l0.014-0.032
					c10.434,10.397,14.823,21.936,14.823,32.104l0,0C178.522,364.605,178.522,364.688,178.522,364.767L178.522,364.767z"/>
			</g>
		</g>
		<g>
			<path fill="#8FC31F" d="M367.153,283.626c0-4.569,3.69-8.241,8.23-8.241l0,0h50.081c16.789-0.234,23.055-6.047,27.191-12.313l0,0
				c4.004-6.362,4.556-14.343,4.495-16.706l0,0c0-0.541,0-0.652,0-0.652l0,0l-0.029-0.48c-0.268-15.458-6.027-20.952-12.458-24.839
				l0,0c-6.519-3.702-14.466-4.067-15.73-4.023l0,0v-0.011l-0.432,0.011h-53.118l0,0c-4.54,0-8.23-3.675-8.23-8.22l0,0
				c0-4.564,3.69-8.248,8.23-8.248l0,0h52.834c0.194-0.011,0.419-0.011,0.716-0.011l0,0c2.798,0.059,13.112,0.245,23.754,6.083l0,0
				c10.716,5.656,21.104,18.655,20.955,39.047l0,0c0,0.266,0,0.751,0,1.342l0,0c-0.045,3.993-0.462,14.667-6.95,25.343l0,0
				c-6.431,10.756-20.019,20.397-41.228,20.151l0,0h-50.081C370.844,291.86,367.153,288.182,367.153,283.626L367.153,283.626z"/>
			<path fill="#8FC31F" d="M47.283,285.726c-10.733-5.607-21.046-18.523-20.927-38.856l0,0c0-0.306,0-0.808,0-1.474l0,0
				c0.029-4.022,0.446-14.683,6.95-25.355l0,0c6.34-10.793,19.959-20.406,41.137-20.168l0,0h50.187c4.495,0,8.2,3.7,8.2,8.243l0,0
				c0,4.558-3.705,8.246-8.2,8.246l0,0H74.444c-16.728,0.242-23.023,6.046-27.102,12.286l0,0c-4.004,6.385-4.584,14.345-4.54,16.748
				l0,0c0,0.509,0,0.561,0,0.561l0,0v0.563c0.297,15.452,6.102,20.943,12.516,24.84l0,0c6.504,3.693,14.393,4.073,15.688,4.025l0,0
				c0.178,0,0.252,0,0.431,0l0,0h53.193c4.524,0,8.2,3.672,8.2,8.241l0,0c0,4.556-3.676,8.234-8.2,8.234l0,0H71.542
				c0,0-0.223,0-0.536,0l0,0C68.268,291.805,57.982,291.615,47.283,285.726L47.283,285.726z"/>
			<path fill="#8FC31F" d="M248.771,480.181c-20.524,0.18-33.53-10.082-39.276-20.775l0,0c-5.895-10.649-6.118-20.896-6.163-23.648
				l0,0c0-0.164,0-0.285,0.045-0.387l0,0h-0.045v-52.801h0.045c0-4.546,3.676-8.216,8.247-8.216l0,0c4.524,0,8.229,3.67,8.229,8.216
				l0,0v52.801l-0.029,0.387h0.029c-0.119,1.235,0.268,9.076,3.99,15.573l0,0c3.914,6.348,9.494,12.102,25.123,12.367l0,0
				l0.446,0.037c0.043-0.037,0.133,0,0.685,0l0,0c2.397,0.031,10.506-0.535,16.892-4.499l0,0
				c6.326-4.088,12.145-10.277,12.368-26.882l0,0v-49.763c0-4.567,3.721-8.237,8.201-8.237l0,0c4.614,0,8.26,3.67,8.26,8.237l0,0
				v49.763c0.284,21.082-9.466,34.686-20.315,40.969l0,0c-10.701,6.369-21.357,6.821-25.406,6.858l0,0
				C249.516,480.181,249.083,480.181,248.771,480.181L248.771,480.181z"/>
			<path fill="#8FC31F" d="M279.401,117.462V64.485c0,0,0-0.056,0-0.238l0,0c0.06-1.265-0.313-9.127-4.048-15.561l0,0
				c-3.915-6.355-9.466-12.092-25.109-12.349l0,0h-0.565c0,0-0.045-0.037-0.581-0.037l0,0c-2.366-0.06-10.448,0.509-16.892,4.505
				l0,0c-6.326,4.086-12.129,10.292-12.354,26.898l0,0v49.758c0,4.529-3.676,8.209-8.229,8.209l0,0c-4.571,0-8.247-3.68-8.247-8.209
				l0,0V67.704c-0.268-21.119,9.451-34.715,20.271-41.021l0,0c10.745-6.408,21.432-6.832,25.451-6.865l0,0
				c0.536,0,0.981,0,1.31,0.026l0,0c20.479-0.227,33.561,10.031,39.307,20.744l0,0c5.863,10.63,6.102,20.873,6.102,23.66l0,0
				c0,0.332,0,0.513,0,0.41l0,0v52.805l0,0c0,4.529-3.616,8.209-8.201,8.209l0,0C283.077,125.671,279.401,121.991,279.401,117.462
				L279.401,117.462z"/>
		</g>
	</g>
</g>
</svg>
