<?xml version="1.0" encoding="utf-8"?>
<!-- Generator: Adobe Illustrator 15.1.0, SVG Export Plug-In . SVG Version: 6.00 Build 0)  -->
<!DOCTYPE svg PUBLIC "-//W3C//DTD SVG 1.1//EN" "http://www.w3.org/Graphics/SVG/1.1/DTD/svg11.dtd">
<svg version="1.1" id="圖層_1" xmlns="http://www.w3.org/2000/svg" xmlns:xlink="http://www.w3.org/1999/xlink" x="0px" y="0px"
	 width="500px" height="500px" viewBox="0 0 500 500" enable-background="new 0 0 500 500" xml:space="preserve">
<path fill="#8FC31F" d="M248.771,480.181c-20.524,0.18-33.53-10.082-39.276-20.775l0,0c-5.895-10.649-6.118-20.896-6.163-23.648l0,0
	c0-0.164,0-0.285,0.045-0.387l0,0h-0.045v-52.801h0.045c0-4.546,3.676-8.216,8.247-8.216l0,0c4.524,0,8.229,3.67,8.229,8.216l0,0
	v52.801l-0.029,0.387h0.029c-0.119,1.235,0.268,9.076,3.99,15.573l0,0c3.914,6.348,9.494,12.102,25.123,12.367l0,0l0.446,0.037
	c0.043-0.037,0.133,0,0.685,0l0,0c2.397,0.031,10.506-0.535,16.892-4.499l0,0c6.326-4.088,12.145-10.277,12.368-26.882l0,0v-49.763
	c0-4.567,3.721-8.237,8.201-8.237l0,0c4.614,0,8.26,3.67,8.26,8.237l0,0v49.763c0.284,21.082-9.466,34.686-20.315,40.969l0,0
	c-10.701,6.369-21.357,6.821-25.406,6.858l0,0C249.516,480.181,249.083,480.181,248.771,480.181L248.771,480.181z"/>
</svg>
