<?xml version="1.0" encoding="utf-8"?>
<!-- Generator: Adobe Illustrator 15.1.0, SVG Export Plug-In . SVG Version: 6.00 Build 0)  -->
<!DOCTYPE svg PUBLIC "-//W3C//DTD SVG 1.1//EN" "http://www.w3.org/Graphics/SVG/1.1/DTD/svg11.dtd">
<svg version="1.1" id="圖層_1" xmlns="http://www.w3.org/2000/svg" xmlns:xlink="http://www.w3.org/1999/xlink" x="0px" y="0px"
	 width="500px" height="500px" viewBox="0 0 500 500" enable-background="new 0 0 500 500" xml:space="preserve">
<path fill="#1B3670" d="M372.451,434.982l-35.48-35.23c-11.52-11.324-16.253-23.605-16.194-34.401l0,0
	c0.342-19.35,12.845-31.203,15.346-33.547l0,0v-0.03c10.462-10.532,22.146-14.868,32.37-14.794l0,0
	c20.212,0.332,32.327,14.108,32.863,14.431l0,0l37.58,37.326l0,0c3.557,3.527,3.557,9.287,0.059,12.857l0,0
	c-3.526,3.536-9.286,3.543-12.829,0.024l0,0l-37.849-37.551c0,0,0,0-0.178-0.19l0,0c-0.238-0.22-0.581-0.558-1.071-0.979l0,0
	c-1.013-0.889-2.517-2.05-4.406-3.236l0,0c-3.795-2.394-8.841-4.521-14.169-4.515l0,0c-5.463,0.071-11.668,1.787-19.602,9.504l0,0
	l-0.401,0.421c0,0,0,0-0.238,0.196l0,0c-0.223,0.228-0.64,0.584-1.071,1.091l0,0c-0.907,0.982-2.158,2.513-3.423,4.436l0,0
	c-2.546,3.824-4.837,8.996-4.837,14.556l0,0c0.119,5.741,1.994,12.657,10.819,21.545l0,0l35.496,35.189
	c3.527,3.521,3.543,9.309,0.045,12.852l0,0c-1.785,1.771-4.107,2.688-6.474,2.666l0,0
	C376.529,437.603,374.193,436.707,372.451,434.982L372.451,434.982z"/>
<path fill="#1B3670" d="M178.522,364.767c-0.327,20.252-14.11,32.351-14.437,32.896l0,0l-37.328,37.596
	c-3.527,3.564-9.302,3.564-12.843,0.05l0,0c-3.556-3.57-3.572-9.293-0.074-12.866l0,0l37.61-37.81c0,0,0,0,0.178-0.195l0,0
	c0.178-0.251,0.581-0.579,0.997-1.084l0,0c0.849-0.991,2.039-2.518,3.2-4.369l0,0c2.411-3.781,4.54-8.862,4.509-14.217l0,0
	c-0.074-5.403-1.785-11.636-9.494-19.549l0,0l-0.432-0.424c0,0,0,0-0.224-0.22l0,0c-0.208-0.232-0.564-0.578-1.056-1.065l0,0
	c-1.013-0.923-2.515-2.205-4.42-3.459l0,0c-3.84-2.55-8.974-4.853-14.599-4.831l0,0c-5.716,0.111-12.653,2.05-21.521,10.861l0,0
	l-35.184,35.427c-3.513,3.57-9.289,3.57-12.829,0.06l0,0c-3.589-3.543-3.589-9.303-0.061-12.83l0,0l35.198-35.48
	c11.312-11.495,23.59-16.276,34.397-16.198l0,0c19.407,0.331,31.223,12.863,33.577,15.377l0,0l0.014-0.032
	c10.434,10.397,14.823,21.936,14.823,32.104l0,0C178.522,364.605,178.522,364.688,178.522,364.767L178.522,364.767z"/>
</svg>
